HIERARCHY
ROOT Joint1
{
	OFFSET 0.000000 0.000000 0.000000
	CHANNELS 6 Xposition Yposition Zposition Xrotation Yrotation Zrotation
	JOINT Joint2
	{
		OFFSET -0.000000 0.000000 1.456275
		CHANNELS 6 Xposition Yposition Zposition Xrotation Yrotation Zrotation
		JOINT Joint3
		{
			OFFSET -0.000000 0.000002 1.471446
			CHANNELS 6 Xposition Yposition Zposition Xrotation Yrotation Zrotation
			JOINT Joint4
			{
				OFFSET 0.625745 0.000000 0.917755
				CHANNELS 6 Xposition Yposition Zposition Xrotation Yrotation Zrotation
				JOINT Joint5
				{
					OFFSET -0.629534 0.000001 0.940221
					CHANNELS 6 Xposition Yposition Zposition Xrotation Yrotation Zrotation
					JOINT Joint6
					{
						OFFSET -0.000001 0.113772 1.960660
						CHANNELS 6 Xposition Yposition Zposition Xrotation Yrotation Zrotation
						JOINT Joint7
						{
							OFFSET -0.669733 -0.113771 0.388340
							CHANNELS 6 Xposition Yposition Zposition Xrotation Yrotation Zrotation
							End Site
							{
								OFFSET 0.005509 0.005509 0.438980
							}
						}
					}
				}
			}
		}
	}
}
MOTION
Frames: 19
Frame Time: 0.041667
0.000000 0.000000 0.000000 -0.000000 1.019410 -0.015167 -0.000000 0.000000 1.456275 0.000000 -44.950960 0.000000 -0.000000 0.000002 1.471445 -0.000000 -1.133459 -0.059543 0.625744 0.000000 0.917755 0.000004 134.988867 -0.000001 -0.629533 0.000001 0.940221 0.000000 1.709737 0.005921 0.000000 0.113772 1.960661 -88.308875 89.963215 -0.003493 -0.669733 -0.113771 0.388339 -0.704654 3.566198 134.935018 
0.000000 0.000000 0.000000 -0.000000 1.019410 -0.044744 -0.000000 0.000000 1.456275 0.000000 -44.870880 0.000000 -0.000000 0.000002 1.471446 -0.000000 -1.133459 -0.126221 0.625745 0.000000 0.917755 0.000004 134.878983 -0.000001 -0.629533 0.000001 0.940220 -0.000000 1.709736 0.060502 -0.000000 0.113772 1.960660 -88.306198 89.923272 -0.001655 -0.669733 -0.113771 0.388340 -0.702727 3.566193 134.826555 
0.000000 0.000000 0.000000 -0.000000 1.019410 -0.093545 -0.000000 -0.000000 1.456275 0.000000 -44.738750 -0.000000 -0.000000 0.000002 1.471446 -0.000000 -1.133463 -0.236241 0.625745 0.000000 0.917755 0.000003 134.697669 -0.000001 -0.629534 0.000001 0.940221 0.000000 1.709736 0.150563 -0.000001 0.113772 1.960661 -88.305159 89.857368 -0.000929 -0.669733 -0.113771 0.388340 -0.699548 3.566178 134.647563 
0.000000 0.000000 0.000000 -0.000000 1.019410 -0.161169 -0.000000 0.000000 1.456275 -0.000000 -44.555656 -0.000000 -0.000000 0.000002 1.471446 0.000000 -1.133457 -0.388693 0.625745 0.000000 0.917755 0.000004 134.446441 -0.000001 -0.629534 0.000001 0.940221 0.000000 1.709737 0.275358 -0.000000 0.113772 1.960661 -88.304654 89.766034 -0.000584 -0.669733 -0.113771 0.388340 -0.695143 3.566142 134.399545 
0.000000 0.000000 0.000000 -0.000000 1.019410 -0.247211 -0.000000 0.000000 1.456275 0.000000 -44.322699 0.000000 -0.000000 0.000002 1.471446 0.000000 -1.133459 -0.582669 0.625745 0.000000 0.917755 0.000004 134.126774 -0.000001 -0.629534 0.000001 0.940221 0.000000 1.709736 0.434144 -0.000001 0.113772 1.960660 -88.304429 89.649832 -0.000355 -0.669733 -0.113771 0.388340 -0.689538 3.566068 134.083976 
0.000000 0.000000 0.000000 -0.000000 1.019410 -0.351269 -0.000000 0.000000 1.456275 0.000000 -44.040964 -0.000000 -0.000001 0.000002 1.471446 -0.000000 -1.133462 -0.817260 0.625745 0.000000 0.917755 0.000004 133.740172 -0.000001 -0.629534 0.000001 0.940221 0.000000 1.709736 0.626177 -0.000000 0.113772 1.960661 -88.304258 89.509308 -0.000259 -0.669733 -0.113771 0.388341 -0.682760 3.565937 133.702346 
0.000000 0.000000 0.000000 -0.000000 1.019410 -0.472939 -0.000000 -0.000000 1.456275 -0.000000 -43.711537 -0.000000 -0.000000 0.000002 1.471446 -0.000000 -1.133462 -1.091558 0.625744 0.000000 0.917755 0.000004 133.288136 -0.000001 -0.629534 0.000001 0.940221 0.000000 1.709736 0.850713 -0.000001 0.113772 1.960660 -88.304169 89.344987 -0.000194 -0.669733 -0.113771 0.388340 -0.674837 3.565727 133.256089 
0.000000 0.000000 0.000000 -0.000000 1.019410 -0.611819 -0.000000 0.000000 1.456275 -0.000000 -43.335525 0.000000 -0.000000 0.000002 1.471445 -0.000000 -1.133461 -1.404652 0.625744 0.000000 0.917755 0.000003 132.772170 -0.000001 -0.629533 0.000001 0.940221 -0.000000 1.709736 1.107008 -0.000001 0.113772 1.960661 -88.304101 89.157430 -0.000147 -0.669733 -0.113771 0.388340 -0.665795 3.565413 132.746721 
0.000000 0.000000 0.000000 -0.000000 1.019410 -0.767505 -0.000000 0.000000 1.456275 -0.000000 -42.914000 0.000000 -0.000000 0.000002 1.471446 -0.000000 -1.133460 -1.755636 0.625745 0.000000 0.917755 0.000004 132.193749 -0.000001 -0.629534 0.000001 0.940221 -0.000000 1.709736 1.394318 -0.000002 0.113772 1.960660 -88.304067 88.947170 -0.000122 -0.669733 -0.113771 0.388340 -0.655663 3.564965 132.175717 
0.000000 0.000000 0.000000 -0.000000 1.019410 -0.939594 -0.000000 -0.000000 1.456275 0.000000 -42.448082 0.000000 -0.000000 0.000002 1.471446 0.000000 -1.133460 -2.143599 0.625745 0.000000 0.917755 0.000004 131.554388 -0.000001 -0.629534 0.000001 0.940221 0.000000 1.709737 1.711900 -0.000001 0.113772 1.960660 -88.304032 88.714759 -0.000100 -0.669733 -0.113771 0.388340 -0.644470 3.564352 131.544567 
0.000000 0.000000 0.000000 -0.000000 1.019410 -1.127683 -0.000000 0.000000 1.456275 0.000000 -41.938830 -0.000000 -0.000001 0.000002 1.471445 0.000000 -1.133462 -2.567633 0.625744 0.000000 0.917755 0.000003 130.855605 -0.000001 -0.629534 0.000001 0.940221 0.000001 1.709737 2.059008 -0.000001 0.113772 1.960660 -88.304005 88.460744 -0.000084 -0.669733 -0.113771 0.388341 -0.632243 3.563541 130.854731 
0.000000 0.000000 0.000000 -0.000000 1.019410 -1.331018 -0.000000 0.000000 1.456275 0.000000 -41.388303 -0.000000 -0.000000 0.000002 1.471446 -0.000000 -1.133458 -3.026037 0.625745 0.000000 0.917755 0.000004 130.100173 -0.000001 -0.629533 0.000001 0.940221 -0.000000 1.709737 2.434251 -0.000000 0.113772 1.960661 -88.303991 88.186136 -0.000069 -0.669733 -0.113771 0.388339 -0.619038 3.562500 130.108957 
0.000000 0.000000 0.000000 -0.000000 1.019410 -1.547441 -0.000000 0.000000 1.456275 0.000000 -40.802341 -0.000000 -0.000000 0.000002 1.471445 0.000000 -1.133458 -3.513949 0.625745 0.000000 0.917754 0.000005 129.296096 -0.000002 -0.629534 0.000001 0.940221 -0.000000 1.709736 2.833649 -0.000001 0.113772 1.960661 -88.303971 87.893859 -0.000060 -0.669733 -0.113771 0.388339 -0.604999 3.561201 129.315207 
0.000000 0.000000 0.000000 -0.000000 1.019410 -1.774443 -0.000000 0.000000 1.456275 0.000000 -40.187733 0.000000 -0.000000 0.000002 1.471445 -0.000000 -1.133460 -4.025709 0.625745 0.000000 0.917755 0.000005 128.452731 -0.000001 -0.629534 0.000001 0.940221 -0.000001 1.709736 3.252569 -0.000000 0.113772 1.960660 -88.303964 87.587286 -0.000051 -0.669733 -0.113771 0.388340 -0.590295 3.559634 128.482661 
0.000000 0.000000 0.000000 -0.000000 1.019410 -2.009515 -0.000000 -0.000000 1.456275 -0.000000 -39.551286 -0.000000 -0.000000 0.000002 1.471446 0.000000 -1.133463 -4.555662 0.625745 0.000000 0.917755 0.000004 127.579382 -0.000002 -0.629533 0.000001 0.940221 -0.000000 1.709736 3.686380 -0.000001 0.113772 1.960660 -88.303957 87.269819 -0.000043 -0.669733 -0.113771 0.388340 -0.575094 3.557785 127.620500 
0.000000 0.000000 0.000000 -0.000000 1.019410 -2.250147 -0.000000 -0.000000 1.456275 -0.000000 -38.899771 -0.000000 -0.000000 0.000002 1.471446 -0.000000 -1.133461 -5.098151 0.625745 0.000000 0.917755 0.000004 126.685379 -0.000001 -0.629533 0.000001 0.940221 0.000000 1.709736 4.130454 -0.000000 0.113772 1.960660 -88.303944 86.944838 -0.000044 -0.669733 -0.113771 0.388340 -0.559564 3.555655 126.737971 
0.000000 0.000000 0.000000 -0.000000 1.019410 -2.496245 -0.000000 0.000000 1.456275 0.000000 -38.233463 -0.000000 -0.000000 0.000002 1.471446 0.000000 -1.133457 -5.652963 0.625745 0.000000 0.917755 0.000005 125.771062 -0.000001 -0.629534 0.000001 0.940221 -0.000001 1.709736 4.584615 -0.000001 0.113772 1.960661 -88.303930 86.612481 -0.000038 -0.669733 -0.113771 0.388340 -0.543718 3.553231 125.835389 
0.000000 0.000000 0.000000 -0.000000 1.019410 -2.757372 -0.000000 0.000000 1.456275 -0.000000 -37.526463 -0.000000 -0.000000 0.000002 1.471445 -0.000000 -1.133459 -6.241653 0.625745 0.000000 0.917755 0.000006 124.800930 -0.000001 -0.629534 0.000001 0.940221 0.000000 1.709736 5.066509 -0.000001 0.113772 1.960660 -88.303930 86.259825 -0.000034 -0.669733 -0.113771 0.388341 -0.526947 3.550388 124.877687 
0.000000 0.000000 0.000000 -0.000000 1.019410 -3.045501 -0.000000 -0.000000 1.456275 -0.000000 -36.746353 -0.000000 -0.000000 0.000002 1.471446 -0.000000 -1.133460 -6.891222 0.625744 0.000000 0.917755 0.000003 123.730448 -0.000002 -0.629534 0.000001 0.940221 -0.000001 1.709736 5.598239 -0.000000 0.113772 1.960660 -88.303923 85.870702 -0.000030 -0.669733 -0.113772 0.388339 -0.508500 3.546924 123.820948 
